<svg xmlns="http://www.w3.org/2000/svg" xmlns:xlink="http://www.w3.org/1999/xlink" width="500" zoomAndPan="magnify" viewBox="0 0 375 374.999991" height="500" preserveAspectRatio="xMidYMid meet" version="1.0"><defs><g/><clipPath id="02f4939b9c"><path d="M 3.007812 146 L 267 146 L 267 202 L 3.007812 202 Z M 3.007812 146 " clip-rule="nonzero"/></clipPath><clipPath id="0fba022121"><path d="M 170 301 L 201 301 L 201 326.25 L 170 326.25 Z M 170 301 " clip-rule="nonzero"/></clipPath></defs><rect x="-37.5" width="450" fill="#ffffff" y="-37.499999" height="449.999989" fill-opacity="1"/><rect x="-37.5" width="450" fill="#ffffff" y="-37.499999" height="449.999989" fill-opacity="1"/><g fill="#253a30" fill-opacity="1"><g transform="translate(38.165233, 312.686697)"><g><path d="M 18.65625 12.296875 L 25.359375 2.125 L 15.46875 -4.390625 L 8.765625 5.78125 L 3.03125 2 L 19.671875 -23.25 L 25.40625 -19.46875 L 19.015625 -9.765625 L 28.90625 -3.25 L 35.296875 -12.953125 L 41.03125 -9.171875 L 24.390625 16.078125 Z M 18.65625 12.296875 "/></g></g></g><g fill="#253a30" fill-opacity="1"><g transform="translate(67.412591, 331.740731)"><g><path d="M 0.359375 0.171875 L 24.1875 -22 L 30.265625 -19.109375 L 28.140625 13.375 L 21.5 10.21875 L 21.921875 4.609375 L 11.0625 -0.546875 L 6.984375 3.328125 Z M 14.984375 -4.640625 L 22.671875 -0.984375 L 23.5625 -12.8125 Z M 14.984375 -4.640625 "/></g></g></g><g fill="#253a30" fill-opacity="1"><g transform="translate(97.767553, 345.981657)"><g><path d="M 3.453125 1.109375 L 12.671875 -27.703125 L 24.984375 -23.765625 C 27.179688 -23.054688 28.960938 -22.046875 30.328125 -20.734375 C 31.691406 -19.421875 32.570312 -17.882812 32.96875 -16.125 C 33.375 -14.363281 33.25 -12.453125 32.59375 -10.390625 C 31.914062 -8.285156 30.851562 -6.625 29.40625 -5.40625 C 27.957031 -4.1875 26.25 -3.46875 24.28125 -3.25 L 27.03125 8.65625 L 19.46875 6.234375 L 17.203125 -4.375 L 12.875 -5.765625 L 10 3.203125 Z M 14.5625 -11.328125 L 19.53125 -9.734375 C 21.15625 -9.210938 22.519531 -9.1875 23.625 -9.65625 C 24.726562 -10.132812 25.503906 -11.078125 25.953125 -12.484375 C 26.398438 -13.878906 26.3125 -15.09375 25.6875 -16.125 C 25.070312 -17.15625 23.953125 -17.929688 22.328125 -18.453125 L 17.359375 -20.046875 Z M 14.5625 -11.328125 "/></g></g></g><g fill="#253a30" fill-opacity="1"><g transform="translate(128.643816, 355.744566)"><g><path d="M 11.828125 2.125 L 5.734375 -29.703125 L 13 -28.390625 L 15.0625 -17.078125 L 16.921875 -7 L 28.015625 -25.6875 L 35.25 -24.390625 L 18.453125 3.3125 Z M 11.828125 2.125 "/></g></g></g><g fill="#253a30" fill-opacity="1"><g transform="translate(160.753348, 361.257645)"><g><path d="M 3.625 0.203125 L 5.28125 -30 L 25.140625 -28.921875 L 24.828125 -23.15625 L 11.78125 -23.859375 L 11.4375 -17.578125 L 23.3125 -16.9375 L 23 -11.21875 L 11.125 -11.859375 L 10.75 -5.234375 L 24.265625 -4.5 L 23.953125 1.3125 Z M 3.625 0.203125 "/></g></g></g><g fill="#253a30" fill-opacity="1"><g transform="translate(188.622876, 362.729765)"><g><path d="M 14.171875 -0.265625 C 11.648438 -0.109375 9.445312 -0.390625 7.5625 -1.109375 C 5.6875 -1.835938 4.207031 -2.941406 3.125 -4.421875 C 2.039062 -5.898438 1.4375 -7.675781 1.3125 -9.75 L 8.03125 -10.15625 C 8.125 -8.71875 8.691406 -7.625 9.734375 -6.875 C 10.773438 -6.132812 12.125 -5.816406 13.78125 -5.921875 C 15.226562 -6.003906 16.347656 -6.347656 17.140625 -6.953125 C 17.941406 -7.566406 18.316406 -8.378906 18.265625 -9.390625 C 18.191406 -10.460938 17.628906 -11.296875 16.578125 -11.890625 C 15.535156 -12.492188 13.9375 -12.957031 11.78125 -13.28125 C 8.195312 -13.8125 5.507812 -14.785156 3.71875 -16.203125 C 1.925781 -17.617188 0.957031 -19.546875 0.8125 -21.984375 C 0.632812 -24.753906 1.503906 -27 3.421875 -28.71875 C 5.335938 -30.4375 8.03125 -31.40625 11.5 -31.625 C 13.894531 -31.769531 15.992188 -31.488281 17.796875 -30.78125 C 19.597656 -30.070312 21.03125 -29.003906 22.09375 -27.578125 C 23.15625 -26.148438 23.75 -24.414062 23.875 -22.375 L 17.265625 -21.96875 C 17.179688 -23.320312 16.671875 -24.359375 15.734375 -25.078125 C 14.796875 -25.804688 13.535156 -26.117188 11.953125 -26.015625 C 10.515625 -25.929688 9.394531 -25.582031 8.59375 -24.96875 C 7.789062 -24.351562 7.421875 -23.546875 7.484375 -22.546875 C 7.546875 -21.617188 8.054688 -20.867188 9.015625 -20.296875 C 9.972656 -19.722656 11.613281 -19.234375 13.9375 -18.828125 C 17.769531 -18.171875 20.566406 -17.144531 22.328125 -15.75 C 24.085938 -14.351562 25.039062 -12.460938 25.1875 -10.078125 C 25.363281 -7.222656 24.472656 -4.925781 22.515625 -3.1875 C 20.554688 -1.457031 17.773438 -0.484375 14.171875 -0.265625 Z M 14.171875 -0.265625 "/></g></g></g><g fill="#253a30" fill-opacity="1"><g transform="translate(218.063028, 360.83336)"><g><path d="M 10.703125 -1.984375 L 6.359375 -25.390625 L -3.0625 -23.640625 L -4.234375 -29.984375 L 21.390625 -34.734375 L 22.5625 -28.390625 L 13.125 -26.640625 L 17.46875 -3.234375 Z M 10.703125 -1.984375 "/></g></g></g><g fill="#253a30" fill-opacity="1"><g transform="translate(248.181522, 355.259193)"><g><path d="M 21.234375 -6.9375 L 17.453125 -18.515625 L 6.203125 -14.84375 L 9.984375 -3.265625 L 3.453125 -1.125 L -5.953125 -29.875 L 0.578125 -32.015625 L 4.1875 -20.96875 L 15.4375 -24.640625 L 11.828125 -35.6875 L 18.359375 -37.828125 L 27.765625 -9.078125 Z M 21.234375 -6.9375 "/></g></g></g><g fill="#253a30" fill-opacity="1"><g transform="translate(281.318027, 344.236689)"><g><path d="M 14.609375 -6.5 C 12.265625 -5.34375 10.007812 -4.816406 7.84375 -4.921875 C 5.6875 -5.035156 3.722656 -5.742188 1.953125 -7.046875 C 0.179688 -8.347656 -1.300781 -10.21875 -2.5 -12.65625 L -10.34375 -28.625 L -4.171875 -31.65625 L 3.46875 -16.09375 C 5.519531 -11.90625 8.273438 -10.660156 11.734375 -12.359375 C 15.210938 -14.054688 15.925781 -17 13.875 -21.1875 L 6.234375 -36.75 L 12.40625 -39.78125 L 20.25 -23.8125 C 21.445312 -21.375 22.007812 -19.050781 21.9375 -16.84375 C 21.875 -14.644531 21.226562 -12.660156 20 -10.890625 C 18.769531 -9.117188 16.972656 -7.65625 14.609375 -6.5 Z M 14.609375 -6.5 "/></g></g></g><g fill="#253a30" fill-opacity="1"><g transform="translate(311.709221, 329.099972)"><g><path d="M 3.015625 -2.015625 L -13.796875 -27.15625 L -2.546875 -34.671875 C 0.015625 -36.390625 2.457031 -37.144531 4.78125 -36.9375 C 7.113281 -36.726562 8.96875 -35.59375 10.34375 -33.53125 C 11.125 -32.363281 11.566406 -31.117188 11.671875 -29.796875 C 11.785156 -28.484375 11.546875 -27.234375 10.953125 -26.046875 C 12.515625 -26.328125 13.96875 -26.171875 15.3125 -25.578125 C 16.664062 -24.984375 17.789062 -24.019531 18.6875 -22.6875 C 19.625 -21.269531 20.082031 -19.796875 20.0625 -18.265625 C 20.050781 -16.734375 19.601562 -15.242188 18.71875 -13.796875 C 17.832031 -12.347656 16.535156 -11.054688 14.828125 -9.921875 Z M 5.625 -10.328125 L 10.9375 -13.875 C 12.0625 -14.625 12.757812 -15.46875 13.03125 -16.40625 C 13.3125 -17.351562 13.128906 -18.304688 12.484375 -19.265625 C 11.835938 -20.222656 11.023438 -20.753906 10.046875 -20.859375 C 9.078125 -20.972656 8.03125 -20.65625 6.90625 -19.90625 L 1.59375 -16.359375 Z M -1.3125 -20.703125 L 3.4375 -23.875 C 4.53125 -24.601562 5.203125 -25.414062 5.453125 -26.3125 C 5.703125 -27.207031 5.523438 -28.109375 4.921875 -29.015625 C 4.316406 -29.921875 3.550781 -30.425781 2.625 -30.53125 C 1.707031 -30.632812 0.703125 -30.320312 -0.390625 -29.59375 L -5.140625 -26.421875 Z M -1.3125 -20.703125 "/></g></g></g><path fill="#ffb200" d="M 143.082031 173.613281 C 136.726562 153.898438 149.105469 123.117188 177.914062 115.121094 C 156.882812 116.105469 129.609375 138.34375 137.933594 174.597656 C 135.085938 175.476562 132.128906 176.460938 129.28125 177.335938 C 123.472656 162.003906 125.445312 136.480469 144.941406 117.96875 C 164.003906 99.894531 194.234375 96.828125 216.140625 110.847656 C 240.019531 126.074219 248.234375 152.800781 241.773438 175.695312 C 209.128906 165.835938 176.160156 164.960938 143.082031 173.613281 Z M 143.082031 173.613281 " fill-opacity="1" fill-rule="nonzero"/><path fill="#ffb200" d="M 122.707031 123.117188 C 98.0625 107.890625 73.308594 92.667969 48.003906 77.003906 C 54.796875 68.019531 61.257812 59.585938 67.941406 50.824219 C 89.082031 71.527344 109.890625 91.898438 130.59375 112.164062 C 127.964844 115.996094 125.445312 119.394531 122.707031 123.117188 Z M 122.707031 123.117188 " fill-opacity="1" fill-rule="nonzero"/><path fill="#ffb200" d="M 35.847656 101.648438 C 62.792969 113.585938 89.628906 125.417969 116.464844 137.246094 C 115.476562 141.191406 114.492188 144.914062 113.507812 148.96875 C 84.808594 143.820312 56 138.78125 27.300781 133.632812 C 27.082031 127.609375 31.574219 110.628906 35.847656 101.648438 Z M 35.847656 101.648438 " fill-opacity="1" fill-rule="nonzero"/><path fill="#ffb200" d="M 89.082031 32.859375 C 98.0625 27.273438 106.714844 21.90625 115.695312 16.320312 C 128.292969 42.9375 140.453125 68.898438 152.828125 94.96875 C 148.996094 97.265625 145.601562 99.457031 141.984375 101.648438 C 124.460938 78.976562 107.042969 56.300781 89.082031 32.859375 Z M 89.082031 32.859375 " fill-opacity="1" fill-rule="nonzero"/><path fill="#ffb200" d="M 217.894531 94.746094 C 230.050781 68.570312 242.101562 42.71875 254.367188 16.210938 C 263.351562 21.796875 272.113281 27.273438 281.09375 32.859375 C 263.242188 56.191406 245.824219 78.867188 228.410156 101.648438 C 225.011719 99.347656 221.617188 97.15625 217.894531 94.746094 Z M 217.894531 94.746094 " fill-opacity="1" fill-rule="nonzero"/><path fill="#ffb200" d="M 178.460938 87.628906 C 174.40625 88.394531 170.574219 89.269531 166.519531 90.039062 C 158.085938 62.324219 149.542969 34.613281 140.890625 6.242188 C 150.859375 4.164062 160.824219 2.191406 171.230469 0.109375 C 173.640625 29.683594 176.050781 58.492188 178.460938 87.628906 Z M 178.460938 87.628906 " fill-opacity="1" fill-rule="nonzero"/><path fill="#ffb200" d="M 203.984375 89.929688 C 200.148438 89.160156 196.425781 88.503906 192.261719 87.628906 C 194.453125 58.601562 196.753906 29.683594 199.054688 0 C 209.238281 1.972656 219.207031 3.941406 229.394531 5.914062 C 220.742188 34.285156 212.417969 62.105469 203.984375 89.929688 Z M 203.984375 89.929688 " fill-opacity="1" fill-rule="nonzero"/><path fill="#ffb200" d="M 247.796875 122.679688 C 245.167969 119.175781 242.757812 115.777344 240.019531 112.164062 C 260.503906 91.898438 280.984375 71.746094 301.796875 51.261719 C 305.191406 55.644531 308.480469 59.804688 311.65625 64.078125 C 315.050781 68.789062 314.722656 68.679688 311.65625 73.386719 C 308.589844 78.097656 306.179688 83.246094 303.441406 88.066406 C 303.113281 88.722656 302.671875 89.488281 302.015625 89.820312 C 284.382812 100.554688 266.636719 111.289062 249 121.914062 C 248.671875 122.242188 248.234375 122.460938 247.796875 122.679688 Z M 247.796875 122.679688 " fill-opacity="1" fill-rule="nonzero"/><path fill="#ffb200" d="M 297.304688 118.40625 C 297.304688 124.980469 297.304688 131.003906 297.304688 137.136719 C 294.019531 137.90625 290.84375 138.125 287.996094 139.21875 C 283.394531 141.082031 279.015625 143.492188 274.523438 145.679688 C 273.757812 146.011719 272.988281 146.558594 272.113281 146.667969 C 267.183594 147.542969 262.144531 148.308594 256.996094 149.1875 C 255.902344 145.242188 254.917969 141.191406 253.710938 137.027344 C 268.28125 130.894531 282.738281 124.761719 297.304688 118.40625 Z M 297.304688 118.40625 " fill-opacity="1" fill-rule="nonzero"/><path fill="#b7d966" d="M 326.222656 208.335938 C 329.289062 182.8125 318.117188 168.683594 301.359375 163.425781 C 304.316406 166.273438 307.820312 169.339844 310.890625 172.957031 C 313.957031 176.570312 316.476562 180.625 319.542969 184.894531 C 313.515625 184.785156 308.371094 183.253906 304.097656 179.746094 C 301.6875 177.777344 299.386719 175.476562 297.414062 172.957031 C 292.046875 166.273438 285.914062 160.6875 277.152344 158.714844 C 292.597656 147.324219 318.554688 150.9375 328.304688 172.40625 C 328.414062 170.984375 328.523438 170 328.632812 169.011719 C 330.496094 153.789062 330.386719 138.5625 330.058594 123.335938 C 330.058594 121.804688 329.621094 120.925781 328.195312 120.050781 C 319.652344 114.574219 316.476562 106.25 316.476562 96.5 C 316.476562 95.296875 316.585938 94.089844 316.695312 92.558594 C 319.105469 95.515625 321.292969 98.144531 323.59375 100.882812 C 323.703125 100.773438 323.8125 100.773438 324.03125 100.664062 C 323.375 98.800781 322.171875 96.828125 322.28125 94.96875 C 322.390625 90.914062 322.390625 86.53125 323.59375 82.699219 C 325.675781 76.457031 328.632812 70.539062 331.699219 64.515625 C 337.503906 76.125 346.050781 87.082031 340.023438 101.648438 C 342.324219 98.691406 344.625 95.734375 346.925781 92.886719 C 349.007812 102.632812 344.1875 114.792969 335.644531 119.941406 C 334.328125 120.816406 333.890625 121.582031 333.890625 123.007812 C 333.890625 134.726562 333.78125 146.339844 333.78125 158.058594 C 333.78125 165.398438 333.78125 172.738281 333.78125 179.964844 C 334.109375 179.964844 334.328125 180.074219 334.65625 180.074219 C 335.316406 178.871094 335.972656 177.664062 336.628906 176.460938 C 340.464844 169.558594 345.832031 164.191406 352.183594 159.703125 C 355.03125 157.730469 357.660156 155.539062 360.398438 153.347656 C 365 149.625 367.628906 144.695312 369.050781 139.109375 C 369.160156 138.671875 369.378906 138.234375 369.820312 137.027344 C 371.898438 154.882812 371.789062 171.859375 365.65625 188.179688 C 361.824219 198.367188 355.03125 205.816406 344.1875 208.882812 C 343.75 208.992188 343.203125 209.101562 342.542969 209.320312 C 347.582031 197.054688 349.117188 183.582031 357.441406 172.847656 C 357.113281 172.628906 356.894531 172.410156 356.566406 172.296875 C 353.386719 176.023438 349.992188 179.636719 347.035156 183.582031 C 340.683594 192.34375 337.613281 202.3125 337.066406 213.046875 C 336.191406 229.148438 335.863281 245.25 334.875 261.242188 C 333.671875 280.957031 332.027344 300.785156 330.605469 320.5 C 330.605469 320.9375 330.386719 321.375 329.949219 321.703125 C 329.730469 317.214844 329.507812 312.722656 329.289062 308.230469 C 328.414062 289.5 327.648438 270.769531 326.441406 252.039062 C 325.675781 240.757812 323.8125 229.585938 317.789062 219.507812 C 313.40625 212.167969 307.382812 206.472656 300.042969 201.761719 C 308.699219 211.511719 311.984375 224 317.789062 235.609375 C 310.011719 234.625 303.332031 231.558594 298.511719 225.75 C 295.554688 222.246094 292.816406 218.195312 291.0625 213.921875 C 286.460938 203.078125 282.300781 192.125 272.878906 184.019531 C 290.84375 179.527344 312.96875 189.386719 326.222656 208.335938 Z M 326.222656 208.335938 " fill-opacity="1" fill-rule="nonzero"/><g clip-path="url(#02f4939b9c)"><path fill="#b7d966" d="M 266.855469 197.710938 C 260.285156 196.835938 254.476562 195.957031 248.78125 195.300781 C 223.589844 192.234375 198.726562 193.328125 174.296875 200.886719 C 172.765625 201.324219 170.902344 201.324219 169.480469 200.886719 C 148.886719 194.753906 127.964844 190.808594 106.605469 189.058594 C 89.082031 187.523438 71.445312 186.976562 53.917969 188.070312 C 37.597656 189.058594 21.714844 192.234375 6.050781 196.617188 C 5.175781 196.835938 4.410156 196.945312 3.09375 197.273438 C 3.09375 195.738281 3.09375 194.425781 3.09375 193.109375 C 3.09375 180.074219 3.09375 166.929688 3.203125 153.898438 C 3.203125 152.910156 3.863281 151.816406 4.519531 151.050781 C 5.722656 149.734375 7.257812 148.640625 8.460938 147.542969 C 14.378906 149.1875 14.269531 153.675781 13.71875 158.605469 C 19.746094 158.277344 25.550781 158.058594 31.464844 157.730469 C 31.683594 155.101562 31.464844 152.363281 32.339844 149.953125 C 32.890625 148.421875 35.1875 147.433594 36.394531 146.449219 C 42.089844 148.199219 42.199219 152.472656 41.324219 157.402344 C 47.566406 157.402344 53.371094 157.402344 59.617188 157.402344 C 58.847656 153.347656 59.503906 149.625 64.871094 147.871094 C 66.078125 148.96875 68.378906 150.28125 69.253906 152.144531 C 70.128906 153.898438 69.472656 156.417969 69.472656 158.605469 C 75.386719 159.265625 80.863281 159.8125 86.671875 160.46875 C 86.671875 158.824219 86.5625 157.511719 86.671875 156.085938 C 86.78125 155.320312 87.109375 154.335938 87.765625 154.007812 C 89.082031 153.128906 91.269531 151.597656 92.039062 152.035156 C 94.226562 153.347656 96.855469 154.882812 96.199219 158.386719 C 95.980469 159.484375 96.199219 160.6875 96.199219 161.894531 C 101.019531 162.769531 105.621094 163.535156 110.21875 164.300781 C 114.054688 164.960938 114.054688 164.960938 114.054688 168.683594 C 114.054688 169.339844 114.054688 169.890625 114.054688 170.765625 C 108.03125 169.890625 102.222656 169.011719 96.308594 168.136719 C 96.308594 173.066406 96.308594 177.554688 96.308594 182.15625 C 102.445312 183.253906 108.46875 184.347656 114.492188 185.441406 C 118.324219 186.210938 122.050781 187.195312 125.882812 187.960938 C 127.199219 188.179688 128.730469 188.179688 129.9375 187.742188 C 152.28125 179.964844 175.394531 176.351562 198.945312 177.554688 C 218.550781 178.652344 237.71875 182.046875 256.121094 189.058594 C 260.394531 190.808594 263.132812 194.097656 266.855469 197.710938 Z M 13.828125 164.960938 C 13.828125 170.765625 13.828125 176.242188 13.828125 181.71875 C 19.746094 181.0625 25.550781 180.515625 31.355469 179.855469 C 31.355469 174.597656 31.355469 169.449219 31.355469 164.082031 C 25.550781 164.414062 19.855469 164.632812 13.828125 164.960938 Z M 59.394531 164.300781 C 53.371094 164.300781 47.566406 164.300781 41.652344 164.300781 C 41.652344 169.011719 41.652344 173.941406 41.652344 178.871094 C 47.675781 178.871094 53.480469 178.871094 59.394531 178.871094 C 59.394531 174.050781 59.394531 169.449219 59.394531 164.300781 Z M 69.472656 179.527344 C 75.277344 179.964844 80.753906 180.402344 86.453125 180.84375 C 86.453125 176.023438 86.453125 171.640625 86.453125 166.820312 C 80.753906 166.164062 75.277344 165.617188 69.472656 164.960938 C 69.472656 170 69.472656 174.597656 69.472656 179.527344 Z M 69.472656 179.527344 " fill-opacity="1" fill-rule="nonzero"/></g><path fill="#b7d966" d="M 120.078125 313.707031 C 149.433594 250.398438 222.164062 228.378906 270.140625 249.738281 C 263.242188 250.726562 256.011719 251.382812 248.890625 252.917969 C 209.238281 261.351562 179.773438 283.476562 160.605469 319.183594 C 159.730469 320.828125 159.183594 323.347656 157.757812 324.003906 C 156.335938 324.660156 154.035156 323.675781 152.171875 323.238281 C 141.328125 320.828125 130.59375 317.980469 120.078125 313.707031 Z M 120.078125 313.707031 " fill-opacity="1" fill-rule="nonzero"/><path fill="#b7d966" d="M 232.023438 234.84375 C 175.613281 233.746094 135.742188 260.035156 108.90625 308.339844 C 105.074219 307.574219 82.289062 293.335938 78.015625 288.84375 C 94.226562 263.324219 116.136719 245.03125 144.941406 235.5 C 173.859375 225.859375 202.886719 224.546875 232.023438 234.84375 Z M 232.023438 234.84375 " fill-opacity="1" fill-rule="nonzero"/><path fill="#b7d966" d="M 41.761719 251.820312 C 87.328125 215.347656 137.277344 204.722656 192.699219 221.042969 C 168.382812 220.164062 144.832031 224.109375 122.597656 234.40625 C 100.144531 244.703125 82.398438 260.695312 66.84375 280.738281 C 58.410156 270.988281 50.304688 261.570312 41.761719 251.820312 Z M 41.761719 251.820312 " fill-opacity="1" fill-rule="nonzero"/><path fill="#b7d966" d="M 33.765625 239.445312 C 27.851562 228.710938 23.46875 217.644531 19.964844 205.707031 C 60.929688 193.878906 101.347656 195.300781 141.765625 207.351562 C 102.445312 206.035156 66.84375 217.644531 33.765625 239.445312 Z M 33.765625 239.445312 " fill-opacity="1" fill-rule="nonzero"/><path fill="#b7d966" d="M 190.621094 205.816406 C 196.207031 204.941406 201.792969 203.734375 207.488281 203.1875 C 227.96875 201.105469 248.234375 202.75 268.171875 208.335938 C 272.113281 209.429688 274.742188 210.964844 275.945312 215.457031 C 278.574219 224.984375 283.285156 233.417969 291.609375 239.335938 C 294.019531 240.976562 296.539062 242.402344 299.167969 244.042969 C 298.621094 245.46875 297.964844 247 297.304688 248.644531 C 262.472656 232.871094 227.75 216.878906 190.730469 206.691406 C 190.621094 206.363281 190.621094 206.035156 190.621094 205.816406 Z M 190.621094 205.816406 " fill-opacity="1" fill-rule="nonzero"/><path fill="#b7d966" d="M 258.3125 309.65625 C 255.246094 301.113281 255.574219 292.898438 258.203125 284.792969 C 258.421875 284.132812 259.515625 283.367188 260.285156 283.367188 C 270.359375 282.601562 279.671875 284.683594 288.214844 290.925781 C 279.015625 298.265625 269.15625 304.289062 258.3125 309.65625 Z M 258.3125 309.65625 " fill-opacity="1" fill-rule="nonzero"/><path fill="#b7d966" d="M 253.601562 311.957031 C 248.78125 313.925781 243.960938 316.007812 239.035156 317.871094 C 238.484375 318.089844 237.390625 317.542969 236.84375 316.996094 C 230.488281 311.957031 226.109375 305.601562 224.136719 297.386719 C 229.613281 294.320312 235.636719 293.664062 241.882812 294.429688 C 242.867188 294.539062 243.851562 294.757812 244.730469 294.976562 C 251.519531 296.730469 251.410156 296.730469 252.070312 303.632812 C 252.289062 306.371094 253.054688 309 253.601562 311.957031 Z M 253.601562 311.957031 " fill-opacity="1" fill-rule="nonzero"/><path fill="#b7d966" d="M 199.382812 317.871094 C 204.96875 310.203125 212.089844 306.808594 221.070312 307.683594 C 222.054688 307.792969 223.371094 308.667969 223.917969 309.546875 C 226.328125 313.050781 228.410156 316.664062 230.929688 320.71875 C 223.808594 322.03125 216.578125 323.347656 209.238281 324.550781 C 208.472656 324.660156 207.378906 324.003906 206.609375 323.566406 C 204.203125 321.703125 201.902344 319.84375 199.382812 317.871094 Z M 199.382812 317.871094 " fill-opacity="1" fill-rule="nonzero"/><path fill="#b7d966" d="M 292.597656 287.421875 C 291.390625 274.386719 293.910156 262.992188 299.714844 251.820312 C 304.207031 256.53125 308.480469 261.023438 313.078125 265.949219 C 306.289062 273.070312 299.714844 279.972656 292.597656 287.421875 Z M 292.597656 287.421875 " fill-opacity="1" fill-rule="nonzero"/><path fill="#b7d966" d="M 273.757812 252.367188 C 280.109375 257.515625 285.476562 262.882812 288.652344 269.785156 C 289.308594 271.316406 289.53125 273.179688 289.53125 274.824219 C 289.417969 278.65625 289.089844 282.382812 288.871094 285.886719 C 285.148438 284.351562 281.203125 282.820312 277.371094 281.175781 C 276.824219 280.957031 276.277344 280.300781 276.167969 279.644531 C 273.976562 270.878906 273.425781 262.007812 273.757812 252.367188 Z M 273.757812 252.367188 " fill-opacity="1" fill-rule="nonzero"/><path fill="#b7d966" d="M 251.847656 294.101562 C 248.671875 293.226562 245.386719 292.457031 242.210938 291.472656 C 241.113281 291.144531 240.019531 290.269531 239.472656 289.28125 C 235.089844 281.722656 232.570312 273.507812 230.488281 265.074219 C 230.710938 264.855469 230.929688 264.636719 231.039062 264.308594 C 234.871094 266.828125 239.035156 268.910156 242.429688 271.867188 C 245.605469 274.714844 248.015625 278.328125 250.863281 281.613281 C 254.257812 285.667969 253.710938 289.9375 251.847656 294.101562 Z M 251.847656 294.101562 " fill-opacity="1" fill-rule="nonzero"/><g clip-path="url(#0fba022121)"><path fill="#b7d966" d="M 170.464844 326.085938 C 173.640625 316.777344 179.007812 309.4375 185.472656 301.769531 C 185.140625 313.378906 191.496094 320.171875 200.367188 325.429688 C 200.257812 325.648438 200.257812 325.867188 200.148438 326.085938 C 190.398438 326.085938 180.652344 326.085938 170.464844 326.085938 Z M 170.464844 326.085938 " fill-opacity="1" fill-rule="nonzero"/></g><path fill="#b7d966" d="M 212.199219 277.5625 C 218.769531 282.492188 226.4375 285.230469 230.597656 292.347656 C 228.191406 293.554688 225.890625 294.867188 223.480469 295.855469 C 221.945312 296.511719 221.617188 297.496094 221.945312 299.03125 C 222.273438 300.894531 222.492188 302.644531 222.824219 304.617188 C 219.753906 304.835938 217.457031 304.507812 215.375 301.550781 C 210.007812 294.210938 209.898438 286.324219 212.199219 277.5625 Z M 212.199219 277.5625 " fill-opacity="1" fill-rule="nonzero"/><path fill="#b7d966" d="M 251.410156 257.953125 C 260.175781 263.652344 266.636719 270.769531 270.578125 280.300781 C 265.320312 280.957031 260.0625 279.972656 255.792969 283.585938 C 253.382812 279.425781 251.628906 269.457031 251.410156 257.953125 Z M 251.410156 257.953125 " fill-opacity="1" fill-rule="nonzero"/><path fill="#b7d966" d="M 196.425781 316.996094 C 191.277344 314.257812 187.550781 307.246094 187.992188 299.578125 C 195.546875 299.796875 202.449219 301.660156 206.941406 306.152344 C 203.433594 309.765625 200.039062 313.269531 196.425781 316.996094 Z M 196.425781 316.996094 " fill-opacity="1" fill-rule="nonzero"/><path fill="#b7d966" d="M 311.109375 118.1875 C 314.503906 120.707031 318.117188 123.554688 321.953125 126.074219 C 326.660156 129.140625 328.742188 133.632812 329.289062 139 C 317.570312 139 310.230469 130.347656 311.109375 118.1875 Z M 311.109375 118.1875 " fill-opacity="1" fill-rule="nonzero"/><path fill="#b7d966" d="M 352.730469 118.1875 C 352.949219 131.550781 346.488281 138.453125 334.765625 139.21875 C 335.316406 133.523438 337.617188 128.921875 342.542969 125.636719 C 346.160156 123.335938 349.445312 120.597656 352.730469 118.1875 Z M 352.730469 118.1875 " fill-opacity="1" fill-rule="nonzero"/><path fill="#b7d966" d="M 310.558594 136.261719 C 314.066406 138.671875 317.679688 141.191406 321.292969 143.601562 C 326.003906 146.667969 328.195312 151.050781 328.960938 156.527344 C 316.695312 154.773438 310.777344 148.089844 310.558594 136.261719 Z M 310.558594 136.261719 " fill-opacity="1" fill-rule="nonzero"/><path fill="#b7d966" d="M 353.496094 136.261719 C 352.183594 149.1875 346.707031 155.976562 334.988281 156.195312 C 335.753906 150.171875 338.929688 145.902344 344.1875 142.832031 C 347.472656 140.863281 350.539062 138.453125 353.496094 136.261719 Z M 353.496094 136.261719 " fill-opacity="1" fill-rule="nonzero"/><path fill="#b7d966" d="M 208.363281 280.847656 C 208.363281 286.652344 208.363281 292.019531 208.363281 297.167969 C 205.734375 296.292969 202.667969 295.304688 199.054688 294.210938 C 199.382812 294.539062 199.273438 294.429688 199.164062 294.320312 C 197.191406 289.9375 199.054688 286.980469 202.886719 284.792969 C 204.75 283.695312 206.390625 282.273438 208.363281 280.847656 Z M 208.363281 280.847656 " fill-opacity="1" fill-rule="nonzero"/><path fill="#ffb200" d="M 256.339844 172.738281 C 256.449219 171.53125 256.667969 170.328125 256.886719 168.902344 C 260.394531 169.339844 263.789062 169.667969 267.074219 170 C 263.679688 172.078125 260.832031 175.585938 256.339844 172.738281 Z M 256.339844 172.738281 " fill-opacity="1" fill-rule="nonzero"/></svg>