<svg xmlns="http://www.w3.org/2000/svg" xmlns:xlink="http://www.w3.org/1999/xlink" width="500" zoomAndPan="magnify" viewBox="0 0 375 374.999991" height="500" preserveAspectRatio="xMidYMid meet" version="1.0"><defs><g/><clipPath id="24d674033d"><path d="M 165 82.457031 L 184 82.457031 L 184 126 L 165 126 Z M 165 82.457031 " clip-rule="nonzero"/></clipPath><clipPath id="0182319f1f"><path d="M 189 82.457031 L 208 82.457031 L 208 126 L 189 126 Z M 189 82.457031 " clip-rule="nonzero"/></clipPath><clipPath id="f48fac3dcb"><path d="M 228 113 L 275.574219 113 L 275.574219 237 L 228 237 Z M 228 113 " clip-rule="nonzero"/></clipPath><clipPath id="f16e15af8c"><path d="M 99.324219 152 L 226 152 L 226 179 L 99.324219 179 Z M 99.324219 152 " clip-rule="nonzero"/></clipPath><clipPath id="a2e9406ee9"><path d="M 179 226 L 194 226 L 194 238.457031 L 179 238.457031 Z M 179 226 " clip-rule="nonzero"/></clipPath></defs><g fill="#253a30" fill-opacity="1"><g transform="translate(105.050512, 268.261506)"><g><path d="M 11.8125 0 L 11.8125 -6.3125 L 6.625 -6.3125 L 6.625 0 L 1.78125 0 L 1.78125 -16.796875 L 6.625 -16.796875 L 6.625 -10.78125 L 11.8125 -10.78125 L 11.8125 -16.796875 L 16.65625 -16.796875 L 16.65625 0 Z M 11.8125 0 "/></g></g></g><g fill="#253a30" fill-opacity="1"><g transform="translate(122.810548, 268.261506)"><g><path d="M 0.125 0 L 6.640625 -16.796875 L 11.453125 -16.796875 L 17.96875 0 L 12.8125 0 L 11.90625 -2.375 L 6.171875 -2.375 L 5.25 0 Z M 7.171875 -5.921875 L 10.921875 -5.921875 L 9.046875 -11.140625 Z M 7.171875 -5.921875 "/></g></g></g><g fill="#253a30" fill-opacity="1"><g transform="translate(140.234586, 268.261506)"><g><path d="M 1.78125 0 L 1.78125 -16.796875 L 9.4375 -16.796875 C 10.789062 -16.796875 11.957031 -16.550781 12.9375 -16.0625 C 13.925781 -15.582031 14.6875 -14.890625 15.21875 -13.984375 C 15.757812 -13.085938 16.03125 -12.019531 16.03125 -10.78125 C 16.03125 -9.613281 15.789062 -8.59375 15.3125 -7.71875 C 14.832031 -6.84375 14.144531 -6.15625 13.25 -5.65625 L 16.34375 0 L 10.84375 0 L 8.453125 -4.78125 L 6.625 -4.78125 L 6.625 0 Z M 6.53125 -8.640625 L 8.78125 -8.640625 C 9.550781 -8.640625 10.140625 -8.820312 10.546875 -9.1875 C 10.953125 -9.5625 11.15625 -10.082031 11.15625 -10.75 C 11.15625 -11.425781 10.953125 -11.941406 10.546875 -12.296875 C 10.140625 -12.660156 9.550781 -12.84375 8.78125 -12.84375 L 6.53125 -12.84375 Z M 6.53125 -8.640625 "/></g></g></g><g fill="#253a30" fill-opacity="1"><g transform="translate(156.842623, 268.261506)"><g><path d="M 6.4375 0 L 0.125 -16.796875 L 5.328125 -16.796875 L 7.296875 -11.25 L 8.859375 -6.890625 L 10.421875 -11.25 L 12.390625 -16.796875 L 17.546875 -16.796875 L 11.234375 0 Z M 6.4375 0 "/></g></g></g><g fill="#253a30" fill-opacity="1"><g transform="translate(173.834661, 268.261506)"><g><path d="M 1.78125 0 L 1.78125 -16.796875 L 13.296875 -16.796875 L 13.296875 -12.890625 L 6.578125 -12.890625 L 6.578125 -10.4375 L 12.640625 -10.4375 L 12.640625 -6.546875 L 6.578125 -6.546875 L 6.578125 -3.953125 L 13.5625 -3.953125 L 13.5625 0 Z M 1.78125 0 "/></g></g></g><g fill="#253a30" fill-opacity="1"><g transform="translate(187.802689, 268.261506)"><g><path d="M 7.796875 0.359375 C 5.617188 0.359375 3.914062 -0.15625 2.6875 -1.1875 C 1.457031 -2.21875 0.84375 -3.640625 0.84375 -5.453125 L 5.515625 -5.453125 C 5.515625 -4.804688 5.710938 -4.300781 6.109375 -3.9375 C 6.503906 -3.582031 7.046875 -3.40625 7.734375 -3.40625 C 8.316406 -3.40625 8.773438 -3.519531 9.109375 -3.75 C 9.453125 -3.988281 9.625 -4.316406 9.625 -4.734375 C 9.625 -5.660156 8.613281 -6.320312 6.59375 -6.71875 C 2.832031 -7.4375 0.953125 -9.207031 0.953125 -12.03125 C 0.953125 -13.613281 1.523438 -14.863281 2.671875 -15.78125 C 3.816406 -16.695312 5.382812 -17.15625 7.375 -17.15625 C 8.75 -17.15625 9.941406 -16.921875 10.953125 -16.453125 C 11.972656 -15.992188 12.757812 -15.335938 13.3125 -14.484375 C 13.863281 -13.628906 14.140625 -12.625 14.140625 -11.46875 L 9.578125 -11.46875 C 9.578125 -12.113281 9.390625 -12.601562 9.015625 -12.9375 C 8.648438 -13.269531 8.132812 -13.4375 7.46875 -13.4375 C 6.90625 -13.4375 6.453125 -13.320312 6.109375 -13.09375 C 5.773438 -12.863281 5.609375 -12.539062 5.609375 -12.125 C 5.609375 -11.6875 5.832031 -11.320312 6.28125 -11.03125 C 6.726562 -10.75 7.488281 -10.488281 8.5625 -10.25 C 10.613281 -9.800781 12.109375 -9.148438 13.046875 -8.296875 C 13.984375 -7.441406 14.453125 -6.316406 14.453125 -4.921875 C 14.453125 -3.273438 13.863281 -1.984375 12.6875 -1.046875 C 11.519531 -0.109375 9.890625 0.359375 7.796875 0.359375 Z M 7.796875 0.359375 "/></g></g></g><g fill="#253a30" fill-opacity="1"><g transform="translate(202.466725, 268.261506)"><g><path d="M 5.78125 0 L 5.78125 -12.3125 L 0.671875 -12.3125 L 0.671875 -16.796875 L 15.71875 -16.796875 L 15.71875 -12.3125 L 10.609375 -12.3125 L 10.609375 0 Z M 5.78125 0 "/></g></g></g><g fill="#253a30" fill-opacity="1"><g transform="translate(218.186762, 268.261506)"><g><path d="M 11.8125 0 L 11.8125 -6.3125 L 6.625 -6.3125 L 6.625 0 L 1.78125 0 L 1.78125 -16.796875 L 6.625 -16.796875 L 6.625 -10.78125 L 11.8125 -10.78125 L 11.8125 -16.796875 L 16.65625 -16.796875 L 16.65625 0 Z M 11.8125 0 "/></g></g></g><g fill="#253a30" fill-opacity="1"><g transform="translate(235.946802, 268.261506)"><g><path d="M 9 0.359375 C 7.5 0.359375 6.195312 0.0664062 5.09375 -0.515625 C 3.988281 -1.097656 3.132812 -1.929688 2.53125 -3.015625 C 1.925781 -4.109375 1.625 -5.40625 1.625 -6.90625 L 1.625 -16.796875 L 6.484375 -16.796875 L 6.484375 -7.21875 C 6.484375 -5.1875 7.320312 -4.171875 9 -4.171875 C 10.675781 -4.171875 11.515625 -5.1875 11.515625 -7.21875 L 11.515625 -16.796875 L 16.34375 -16.796875 L 16.34375 -6.90625 C 16.34375 -5.40625 16.046875 -4.109375 15.453125 -3.015625 C 14.859375 -1.929688 14.015625 -1.097656 12.921875 -0.515625 C 11.828125 0.0664062 10.519531 0.359375 9 0.359375 Z M 9 0.359375 "/></g></g></g><g fill="#253a30" fill-opacity="1"><g transform="translate(253.274838, 268.261506)"><g><path d="M 1.78125 0 L 1.78125 -16.796875 L 9.953125 -16.796875 C 11.710938 -16.796875 13.101562 -16.390625 14.125 -15.578125 C 15.15625 -14.765625 15.671875 -13.664062 15.671875 -12.28125 C 15.671875 -11.488281 15.492188 -10.765625 15.140625 -10.109375 C 14.785156 -9.460938 14.28125 -8.957031 13.625 -8.59375 C 14.425781 -8.238281 15.050781 -7.722656 15.5 -7.046875 C 15.945312 -6.367188 16.171875 -5.582031 16.171875 -4.6875 C 16.171875 -3.769531 15.925781 -2.957031 15.4375 -2.25 C 14.957031 -1.550781 14.28125 -1 13.40625 -0.59375 C 12.53125 -0.195312 11.523438 0 10.390625 0 Z M 6.53125 -3.59375 L 9.453125 -3.59375 C 10.023438 -3.59375 10.46875 -3.734375 10.78125 -4.015625 C 11.09375 -4.296875 11.25 -4.6875 11.25 -5.1875 C 11.25 -5.675781 11.09375 -6.054688 10.78125 -6.328125 C 10.46875 -6.609375 10.023438 -6.75 9.453125 -6.75 L 6.53125 -6.75 Z M 6.53125 -10.203125 L 9.046875 -10.203125 C 10.210938 -10.203125 10.796875 -10.707031 10.796875 -11.71875 C 10.796875 -12.71875 10.210938 -13.21875 9.046875 -13.21875 L 6.53125 -13.21875 Z M 6.53125 -10.203125 "/></g></g></g><path fill="#ffb200" d="M 166.351562 165.539062 C 163.3125 156.105469 169.234375 141.375 183.019531 137.550781 C 172.957031 138.019531 159.902344 148.660156 163.886719 166.011719 C 162.523438 166.429688 161.109375 166.902344 159.746094 167.324219 C 156.96875 159.984375 157.914062 147.769531 167.242188 138.914062 C 176.363281 130.261719 190.832031 128.796875 201.3125 135.503906 C 212.742188 142.792969 216.671875 155.582031 213.578125 166.535156 C 197.960938 161.820312 182.183594 161.398438 166.351562 165.539062 Z M 166.351562 165.539062 " fill-opacity="1" fill-rule="nonzero"/><path fill="#ffb200" d="M 156.601562 141.375 C 144.808594 134.089844 132.960938 126.804688 120.851562 119.308594 C 124.101562 115.011719 127.195312 110.972656 130.394531 106.78125 C 140.511719 116.6875 150.46875 126.4375 160.375 136.132812 C 159.117188 137.96875 157.914062 139.59375 156.601562 141.375 Z M 156.601562 141.375 " fill-opacity="1" fill-rule="nonzero"/><path fill="#ffb200" d="M 115.035156 131.101562 C 127.929688 136.816406 140.773438 142.476562 153.613281 148.136719 C 153.140625 150.023438 152.671875 151.808594 152.199219 153.746094 C 138.464844 151.28125 124.679688 148.871094 110.945312 146.40625 C 110.839844 143.523438 112.992188 135.398438 115.035156 131.101562 Z M 115.035156 131.101562 " fill-opacity="1" fill-rule="nonzero"/><path fill="#ffb200" d="M 140.511719 98.183594 C 144.808594 95.511719 148.949219 92.941406 153.246094 90.269531 C 159.273438 103.007812 165.09375 115.429688 171.015625 127.90625 C 169.183594 129.003906 167.558594 130.054688 165.828125 131.101562 C 157.441406 120.25 149.105469 109.402344 140.511719 98.183594 Z M 140.511719 98.183594 " fill-opacity="1" fill-rule="nonzero"/><path fill="#ffb200" d="M 202.152344 127.800781 C 207.972656 115.273438 213.738281 102.902344 219.609375 90.214844 C 223.90625 92.890625 228.097656 95.511719 232.398438 98.183594 C 223.855469 109.347656 215.519531 120.199219 207.183594 131.101562 C 205.558594 130 203.933594 128.953125 202.152344 127.800781 Z M 202.152344 127.800781 " fill-opacity="1" fill-rule="nonzero"/><g clip-path="url(#24d674033d)"><path fill="#ffb200" d="M 183.28125 124.394531 C 181.34375 124.757812 179.507812 125.179688 177.570312 125.546875 C 173.53125 112.285156 169.445312 99.023438 165.304688 85.445312 C 170.074219 84.449219 174.84375 83.507812 179.824219 82.511719 C 180.976562 96.664062 182.128906 110.449219 183.28125 124.394531 Z M 183.28125 124.394531 " fill-opacity="1" fill-rule="nonzero"/></g><g clip-path="url(#0182319f1f)"><path fill="#ffb200" d="M 195.496094 125.492188 C 193.660156 125.125 191.878906 124.8125 189.886719 124.394531 C 190.933594 110.503906 192.035156 96.664062 193.136719 82.457031 C 198.011719 83.402344 202.78125 84.34375 207.65625 85.289062 C 203.515625 98.867188 199.53125 112.179688 195.496094 125.492188 Z M 195.496094 125.492188 " fill-opacity="1" fill-rule="nonzero"/></g><path fill="#ffb200" d="M 216.460938 141.167969 C 215.203125 139.488281 214.050781 137.863281 212.742188 136.132812 C 222.542969 126.4375 232.34375 116.792969 242.304688 106.988281 C 243.929688 109.085938 245.503906 111.078125 247.023438 113.121094 C 248.648438 115.375 248.488281 115.324219 247.023438 117.578125 C 245.554688 119.832031 244.402344 122.296875 243.089844 124.601562 C 242.933594 124.917969 242.722656 125.285156 242.410156 125.441406 C 233.96875 130.578125 225.480469 135.714844 217.039062 140.800781 C 216.882812 140.957031 216.671875 141.0625 216.460938 141.167969 Z M 216.460938 141.167969 " fill-opacity="1" fill-rule="nonzero"/><path fill="#ffb200" d="M 240.15625 139.121094 C 240.15625 142.265625 240.15625 145.148438 240.15625 148.085938 C 238.582031 148.453125 237.0625 148.558594 235.699219 149.082031 C 233.5 149.972656 231.402344 151.125 229.253906 152.175781 C 228.886719 152.332031 228.519531 152.59375 228.097656 152.644531 C 225.742188 153.066406 223.328125 153.433594 220.867188 153.851562 C 220.339844 151.964844 219.871094 150.023438 219.292969 148.03125 C 226.265625 145.097656 233.183594 142.164062 240.15625 139.121094 Z M 240.15625 139.121094 " fill-opacity="1" fill-rule="nonzero"/><g clip-path="url(#f48fac3dcb)"><path fill="#b7d966" d="M 253.992188 182.15625 C 255.460938 169.945312 250.113281 163.179688 242.09375 160.664062 C 243.511719 162.027344 245.1875 163.496094 246.65625 165.226562 C 248.121094 166.957031 249.328125 168.894531 250.796875 170.9375 C 247.914062 170.886719 245.449219 170.152344 243.40625 168.476562 C 242.253906 167.53125 241.152344 166.429688 240.207031 165.226562 C 237.640625 162.027344 234.703125 159.355469 230.511719 158.410156 C 237.902344 152.960938 250.324219 154.691406 254.988281 164.964844 C 255.042969 164.28125 255.09375 163.808594 255.148438 163.339844 C 256.039062 156.054688 255.984375 148.765625 255.828125 141.480469 C 255.828125 140.746094 255.617188 140.328125 254.9375 139.90625 C 250.847656 137.289062 249.328125 133.304688 249.328125 128.636719 C 249.328125 128.0625 249.382812 127.484375 249.433594 126.75 C 250.585938 128.167969 251.636719 129.425781 252.734375 130.734375 C 252.789062 130.683594 252.839844 130.683594 252.945312 130.628906 C 252.628906 129.738281 252.054688 128.796875 252.105469 127.90625 C 252.160156 125.964844 252.160156 123.867188 252.734375 122.035156 C 253.730469 119.046875 255.148438 116.214844 256.613281 113.332031 C 259.394531 118.890625 263.480469 124.128906 260.597656 131.101562 C 261.699219 129.6875 262.800781 128.273438 263.902344 126.910156 C 264.894531 131.574219 262.589844 137.390625 258.5 139.855469 C 257.871094 140.273438 257.664062 140.640625 257.664062 141.324219 C 257.664062 146.933594 257.609375 152.488281 257.609375 158.097656 C 257.609375 161.609375 257.609375 165.121094 257.609375 168.582031 C 257.769531 168.582031 257.871094 168.632812 258.03125 168.632812 C 258.34375 168.054688 258.660156 167.480469 258.972656 166.902344 C 260.808594 163.601562 263.375 161.03125 266.417969 158.882812 C 267.78125 157.941406 269.039062 156.890625 270.347656 155.84375 C 272.550781 154.0625 273.808594 151.703125 274.488281 149.027344 C 274.542969 148.820312 274.644531 148.609375 274.855469 148.03125 C 275.851562 156.578125 275.800781 164.703125 272.863281 172.511719 C 271.027344 177.386719 267.78125 180.949219 262.589844 182.417969 C 262.378906 182.472656 262.117188 182.523438 261.804688 182.628906 C 264.214844 176.757812 264.949219 170.308594 268.933594 165.171875 C 268.773438 165.070312 268.671875 164.964844 268.511719 164.910156 C 266.992188 166.695312 265.367188 168.421875 263.953125 170.308594 C 260.914062 174.503906 259.445312 179.273438 259.183594 184.410156 C 258.761719 192.117188 258.605469 199.820312 258.132812 207.472656 C 257.558594 216.910156 256.773438 226.398438 256.089844 235.832031 C 256.089844 236.042969 255.984375 236.25 255.777344 236.410156 C 255.671875 234.257812 255.566406 232.109375 255.460938 229.960938 C 255.042969 220.996094 254.675781 212.035156 254.097656 203.070312 C 253.730469 197.671875 252.839844 192.324219 249.957031 187.503906 C 247.859375 183.992188 244.976562 181.265625 241.464844 179.011719 C 245.605469 183.675781 247.179688 189.652344 249.957031 195.207031 C 246.234375 194.738281 243.039062 193.269531 240.730469 190.492188 C 239.316406 188.8125 238.007812 186.875 237.167969 184.828125 C 234.964844 179.640625 232.972656 174.398438 228.464844 170.519531 C 237.0625 168.371094 247.652344 173.089844 253.992188 182.15625 Z M 253.992188 182.15625 " fill-opacity="1" fill-rule="nonzero"/></g><g clip-path="url(#f16e15af8c)"><path fill="#b7d966" d="M 225.582031 177.070312 C 222.4375 176.652344 219.660156 176.234375 216.933594 175.917969 C 204.878906 174.453125 192.980469 174.976562 181.289062 178.59375 C 180.558594 178.800781 179.664062 178.800781 178.984375 178.59375 C 169.128906 175.65625 159.117188 173.769531 148.898438 172.929688 C 140.511719 172.199219 132.070312 171.933594 123.683594 172.460938 C 115.875 172.929688 108.273438 174.453125 100.777344 176.546875 C 100.359375 176.652344 99.992188 176.707031 99.363281 176.863281 C 99.363281 176.128906 99.363281 175.5 99.363281 174.871094 C 99.363281 168.632812 99.363281 162.34375 99.414062 156.105469 C 99.414062 155.632812 99.730469 155.109375 100.042969 154.742188 C 100.621094 154.113281 101.355469 153.589844 101.929688 153.066406 C 104.761719 153.851562 104.707031 156 104.445312 158.359375 C 107.328125 158.203125 110.109375 158.097656 112.9375 157.941406 C 113.042969 156.683594 112.9375 155.371094 113.359375 154.21875 C 113.621094 153.484375 114.71875 153.011719 115.296875 152.539062 C 118.023438 153.378906 118.074219 155.421875 117.65625 157.78125 C 120.644531 157.78125 123.421875 157.78125 126.410156 157.78125 C 126.042969 155.84375 126.355469 154.0625 128.925781 153.222656 C 129.503906 153.746094 130.601562 154.375 131.023438 155.265625 C 131.441406 156.105469 131.128906 157.3125 131.128906 158.359375 C 133.957031 158.671875 136.578125 158.9375 139.355469 159.25 C 139.355469 158.464844 139.304688 157.835938 139.355469 157.152344 C 139.410156 156.785156 139.566406 156.316406 139.878906 156.15625 C 140.511719 155.738281 141.558594 155.003906 141.925781 155.214844 C 142.972656 155.84375 144.230469 156.578125 143.917969 158.253906 C 143.8125 158.777344 143.917969 159.355469 143.917969 159.933594 C 146.222656 160.351562 148.425781 160.71875 150.625 161.085938 C 152.460938 161.398438 152.460938 161.398438 152.460938 163.179688 C 152.460938 163.496094 152.460938 163.757812 152.460938 164.175781 C 149.578125 163.757812 146.800781 163.339844 143.96875 162.917969 C 143.96875 165.277344 143.96875 167.425781 143.96875 169.628906 C 146.90625 170.152344 149.789062 170.675781 152.671875 171.203125 C 154.503906 171.566406 156.289062 172.039062 158.121094 172.40625 C 158.75 172.511719 159.484375 172.511719 160.0625 172.300781 C 170.753906 168.582031 181.816406 166.851562 193.085938 167.425781 C 202.46875 167.953125 211.640625 169.578125 220.445312 172.929688 C 222.492188 173.769531 223.800781 175.34375 225.582031 177.070312 Z M 104.5 161.398438 C 104.5 164.175781 104.5 166.796875 104.5 169.417969 C 107.328125 169.105469 110.109375 168.84375 112.886719 168.527344 C 112.886719 166.011719 112.886719 163.546875 112.886719 160.980469 C 110.109375 161.136719 107.382812 161.242188 104.5 161.398438 Z M 126.304688 161.085938 C 123.421875 161.085938 120.644531 161.085938 117.8125 161.085938 C 117.8125 163.339844 117.8125 165.699219 117.8125 168.054688 C 120.695312 168.054688 123.472656 168.054688 126.304688 168.054688 C 126.304688 165.75 126.304688 163.546875 126.304688 161.085938 Z M 131.128906 168.371094 C 133.90625 168.582031 136.527344 168.789062 139.25 169 C 139.25 166.695312 139.25 164.597656 139.25 162.289062 C 136.527344 161.976562 133.90625 161.714844 131.128906 161.398438 C 131.128906 163.8125 131.128906 166.011719 131.128906 168.371094 Z M 131.128906 168.371094 " fill-opacity="1" fill-rule="nonzero"/></g><path fill="#b7d966" d="M 155.34375 232.582031 C 169.390625 202.285156 204.195312 191.75 227.15625 201.96875 C 223.855469 202.441406 220.394531 202.757812 216.988281 203.492188 C 198.011719 207.527344 183.910156 218.113281 174.738281 235.203125 C 174.320312 235.988281 174.058594 237.195312 173.375 237.507812 C 172.695312 237.824219 171.59375 237.351562 170.703125 237.144531 C 165.511719 235.988281 160.375 234.625 155.34375 232.582031 Z M 155.34375 232.582031 " fill-opacity="1" fill-rule="nonzero"/><path fill="#b7d966" d="M 208.914062 194.839844 C 181.917969 194.316406 162.839844 206.898438 149.996094 230.015625 C 148.164062 229.648438 137.261719 222.832031 135.214844 220.683594 C 142.972656 208.46875 153.457031 199.714844 167.242188 195.15625 C 181.082031 190.542969 194.972656 189.914062 208.914062 194.839844 Z M 208.914062 194.839844 " fill-opacity="1" fill-rule="nonzero"/><path fill="#b7d966" d="M 117.867188 202.964844 C 139.671875 185.511719 163.574219 180.425781 190.097656 188.238281 C 178.460938 187.816406 167.191406 189.703125 156.550781 194.632812 C 145.804688 199.558594 137.3125 207.210938 129.867188 216.804688 C 125.832031 212.140625 121.953125 207.632812 117.867188 202.964844 Z M 117.867188 202.964844 " fill-opacity="1" fill-rule="nonzero"/><path fill="#b7d966" d="M 114.039062 197.042969 C 111.207031 191.90625 109.113281 186.613281 107.433594 180.898438 C 127.039062 175.238281 146.378906 175.917969 165.722656 181.683594 C 146.90625 181.054688 129.867188 186.613281 114.039062 197.042969 Z M 114.039062 197.042969 " fill-opacity="1" fill-rule="nonzero"/><path fill="#b7d966" d="M 189.101562 180.949219 C 191.773438 180.53125 194.449219 179.957031 197.171875 179.691406 C 206.976562 178.695312 216.671875 179.484375 226.210938 182.15625 C 228.097656 182.679688 229.355469 183.414062 229.933594 185.5625 C 231.191406 190.125 233.445312 194.160156 237.429688 196.992188 C 238.582031 197.777344 239.789062 198.457031 241.046875 199.246094 C 240.785156 199.925781 240.46875 200.660156 240.15625 201.445312 C 223.488281 193.898438 206.871094 186.246094 189.152344 181.371094 C 189.101562 181.214844 189.101562 181.054688 189.101562 180.949219 Z M 189.101562 180.949219 " fill-opacity="1" fill-rule="nonzero"/><path fill="#b7d966" d="M 221.496094 230.644531 C 220.027344 226.554688 220.183594 222.621094 221.441406 218.742188 C 221.546875 218.429688 222.070312 218.0625 222.4375 218.0625 C 227.261719 217.695312 231.714844 218.691406 235.804688 221.679688 C 231.402344 225.191406 226.683594 228.074219 221.496094 230.644531 Z M 221.496094 230.644531 " fill-opacity="1" fill-rule="nonzero"/><path fill="#b7d966" d="M 219.242188 231.742188 C 216.933594 232.6875 214.628906 233.683594 212.269531 234.574219 C 212.007812 234.679688 211.484375 234.417969 211.222656 234.15625 C 208.179688 231.742188 206.085938 228.703125 205.140625 224.773438 C 207.761719 223.304688 210.644531 222.988281 213.632812 223.355469 C 214.105469 223.410156 214.574219 223.515625 214.996094 223.617188 C 218.246094 224.457031 218.191406 224.457031 218.507812 227.761719 C 218.613281 229.070312 218.980469 230.328125 219.242188 231.742188 Z M 219.242188 231.742188 " fill-opacity="1" fill-rule="nonzero"/><path fill="#b7d966" d="M 193.292969 234.574219 C 195.96875 230.90625 199.375 229.28125 203.671875 229.699219 C 204.144531 229.75 204.773438 230.171875 205.035156 230.589844 C 206.1875 232.269531 207.183594 233.996094 208.390625 235.9375 C 204.984375 236.566406 201.523438 237.195312 198.011719 237.773438 C 197.644531 237.824219 197.121094 237.507812 196.753906 237.300781 C 195.601562 236.410156 194.5 235.519531 193.292969 234.574219 Z M 193.292969 234.574219 " fill-opacity="1" fill-rule="nonzero"/><path fill="#b7d966" d="M 237.902344 220.003906 C 237.324219 213.765625 238.53125 208.3125 241.308594 202.964844 C 243.457031 205.21875 245.503906 207.371094 247.703125 209.726562 C 244.453125 213.136719 241.308594 216.4375 237.902344 220.003906 Z M 237.902344 220.003906 " fill-opacity="1" fill-rule="nonzero"/><path fill="#b7d966" d="M 228.886719 203.226562 C 231.925781 205.691406 234.496094 208.261719 236.015625 211.5625 C 236.328125 212.296875 236.433594 213.1875 236.433594 213.972656 C 236.382812 215.808594 236.222656 217.589844 236.121094 219.269531 C 234.335938 218.535156 232.449219 217.800781 230.617188 217.015625 C 230.351562 216.910156 230.089844 216.59375 230.039062 216.28125 C 228.992188 212.085938 228.726562 207.839844 228.886719 203.226562 Z M 228.886719 203.226562 " fill-opacity="1" fill-rule="nonzero"/><path fill="#b7d966" d="M 218.402344 223.199219 C 216.882812 222.78125 215.308594 222.414062 213.789062 221.941406 C 213.265625 221.785156 212.742188 221.363281 212.480469 220.894531 C 210.382812 217.277344 209.175781 213.34375 208.179688 209.308594 C 208.285156 209.203125 208.390625 209.097656 208.441406 208.941406 C 210.277344 210.148438 212.269531 211.144531 213.894531 212.558594 C 215.414062 213.921875 216.566406 215.652344 217.929688 217.222656 C 219.554688 219.164062 219.292969 221.207031 218.402344 223.199219 Z M 218.402344 223.199219 " fill-opacity="1" fill-rule="nonzero"/><g clip-path="url(#a2e9406ee9)"><path fill="#b7d966" d="M 179.457031 238.503906 C 180.976562 234.050781 183.542969 230.539062 186.636719 226.867188 C 186.480469 232.425781 189.519531 235.675781 193.765625 238.191406 C 193.714844 238.296875 193.714844 238.402344 193.660156 238.503906 C 188.996094 238.503906 184.332031 238.503906 179.457031 238.503906 Z M 179.457031 238.503906 " fill-opacity="1" fill-rule="nonzero"/></g><path fill="#b7d966" d="M 199.425781 215.285156 C 202.570312 217.644531 206.242188 218.953125 208.234375 222.359375 C 207.078125 222.9375 205.980469 223.566406 204.824219 224.039062 C 204.09375 224.351562 203.933594 224.824219 204.09375 225.558594 C 204.25 226.449219 204.355469 227.289062 204.511719 228.230469 C 203.042969 228.335938 201.941406 228.179688 200.945312 226.765625 C 198.378906 223.253906 198.328125 219.476562 199.425781 215.285156 Z M 199.425781 215.285156 " fill-opacity="1" fill-rule="nonzero"/><path fill="#b7d966" d="M 218.191406 205.902344 C 222.386719 208.628906 225.476562 212.035156 227.367188 216.59375 C 224.847656 216.910156 222.332031 216.4375 220.289062 218.167969 C 219.136719 216.175781 218.296875 211.40625 218.191406 205.902344 Z M 218.191406 205.902344 " fill-opacity="1" fill-rule="nonzero"/><path fill="#b7d966" d="M 191.878906 234.15625 C 189.414062 232.84375 187.632812 229.488281 187.84375 225.820312 C 191.460938 225.925781 194.761719 226.816406 196.910156 228.964844 C 195.234375 230.695312 193.609375 232.371094 191.878906 234.15625 Z M 191.878906 234.15625 " fill-opacity="1" fill-rule="nonzero"/><path fill="#b7d966" d="M 246.761719 139.015625 C 248.386719 140.222656 250.113281 141.585938 251.949219 142.792969 C 254.203125 144.257812 255.199219 146.40625 255.460938 148.976562 C 249.851562 148.976562 246.339844 144.835938 246.761719 139.015625 Z M 246.761719 139.015625 " fill-opacity="1" fill-rule="nonzero"/><path fill="#b7d966" d="M 266.679688 139.015625 C 266.785156 145.410156 263.691406 148.714844 258.082031 149.082031 C 258.34375 146.355469 259.445312 144.152344 261.804688 142.582031 C 263.535156 141.480469 265.105469 140.171875 266.679688 139.015625 Z M 266.679688 139.015625 " fill-opacity="1" fill-rule="nonzero"/><path fill="#b7d966" d="M 246.496094 147.664062 C 248.175781 148.820312 249.90625 150.023438 251.636719 151.179688 C 253.890625 152.644531 254.9375 154.742188 255.304688 157.363281 C 249.433594 156.523438 246.601562 153.328125 246.496094 147.664062 Z M 246.496094 147.664062 " fill-opacity="1" fill-rule="nonzero"/><path fill="#b7d966" d="M 267.046875 147.664062 C 266.417969 153.851562 263.796875 157.101562 258.1875 157.207031 C 258.554688 154.324219 260.074219 152.277344 262.589844 150.8125 C 264.164062 149.867188 265.628906 148.714844 267.046875 147.664062 Z M 267.046875 147.664062 " fill-opacity="1" fill-rule="nonzero"/><path fill="#b7d966" d="M 197.59375 216.855469 C 197.59375 219.636719 197.59375 222.203125 197.59375 224.667969 C 196.335938 224.246094 194.867188 223.777344 193.136719 223.253906 C 193.292969 223.410156 193.242188 223.355469 193.1875 223.304688 C 192.246094 221.207031 193.136719 219.792969 194.972656 218.742188 C 195.863281 218.21875 196.648438 217.539062 197.59375 216.855469 Z M 197.59375 216.855469 " fill-opacity="1" fill-rule="nonzero"/><path fill="#ffb200" d="M 220.550781 165.121094 C 220.605469 164.542969 220.707031 163.96875 220.8125 163.285156 C 222.492188 163.496094 224.117188 163.652344 225.6875 163.8125 C 224.0625 164.804688 222.699219 166.484375 220.550781 165.121094 Z M 220.550781 165.121094 " fill-opacity="1" fill-rule="nonzero"/><g fill="#253a30" fill-opacity="1"><g transform="translate(99.872538, 289.341367)"><g><path d="M 2.421875 -8.0625 L 2.421875 -4.9375 L 6.609375 -4.9375 L 6.609375 -4.03125 L 2.421875 -4.03125 L 2.421875 0 L 1.296875 0 L 1.296875 -8.96875 L 7.140625 -8.96875 L 7.140625 -8.0625 Z M 2.421875 -8.0625 "/></g></g></g><g fill="#253a30" fill-opacity="1"><g transform="translate(108.034298, 289.341367)"><g><path d="M 5.921875 -3.171875 L 2.625 -3.171875 L 1.578125 0 L 0.375 0 L 3.59375 -8.96875 L 5.109375 -8.96875 L 8.203125 0 L 7 0 Z M 2.9375 -4.078125 L 5.625 -4.078125 L 4.328125 -8.09375 Z M 2.9375 -4.078125 "/></g></g></g><g fill="#253a30" fill-opacity="1"><g transform="translate(117.13176, 289.341367)"><g><path d="M 7.203125 -2.359375 C 7.253906 -1.773438 7.320312 -1.296875 7.40625 -0.921875 C 7.488281 -0.546875 7.617188 -0.238281 7.796875 0 L 6.5625 0 C 6.445312 -0.28125 6.351562 -0.585938 6.28125 -0.921875 C 6.207031 -1.253906 6.140625 -1.695312 6.078125 -2.25 C 6.023438 -2.707031 5.898438 -3.078125 5.703125 -3.359375 C 5.503906 -3.648438 5.1875 -3.8125 4.75 -3.84375 C 4.644531 -3.851562 4.535156 -3.859375 4.421875 -3.859375 C 4.316406 -3.859375 4.210938 -3.859375 4.109375 -3.859375 L 2.421875 -3.859375 L 2.421875 0 L 1.296875 0 L 1.296875 -8.96875 L 4.234375 -8.96875 C 4.460938 -8.96875 4.664062 -8.960938 4.84375 -8.953125 C 5.019531 -8.953125 5.207031 -8.941406 5.40625 -8.921875 C 6.0625 -8.828125 6.597656 -8.59375 7.015625 -8.21875 C 7.429688 -7.84375 7.640625 -7.28125 7.640625 -6.53125 C 7.640625 -6.132812 7.5625 -5.789062 7.40625 -5.5 C 7.257812 -5.21875 7.066406 -4.984375 6.828125 -4.796875 C 6.585938 -4.617188 6.328125 -4.488281 6.046875 -4.40625 C 6.410156 -4.238281 6.6875 -3.96875 6.875 -3.59375 C 7.0625 -3.21875 7.171875 -2.804688 7.203125 -2.359375 Z M 2.421875 -4.765625 L 4.140625 -4.765625 C 4.335938 -4.765625 4.5 -4.765625 4.625 -4.765625 C 4.757812 -4.773438 4.882812 -4.785156 5 -4.796875 C 5.414062 -4.835938 5.757812 -4.992188 6.03125 -5.265625 C 6.3125 -5.535156 6.453125 -5.921875 6.453125 -6.421875 C 6.453125 -6.921875 6.335938 -7.296875 6.109375 -7.546875 C 5.878906 -7.796875 5.554688 -7.953125 5.140625 -8.015625 C 4.921875 -8.046875 4.617188 -8.0625 4.234375 -8.0625 L 2.421875 -8.0625 Z M 2.421875 -4.765625 "/></g></g></g><g fill="#253a30" fill-opacity="1"><g transform="translate(125.969303, 289.341367)"><g><path d="M 10.25 -8.96875 L 10.25 0 L 9.125 0 L 9.125 -4.609375 C 9.125 -5.171875 9.125 -5.75 9.125 -6.34375 C 9.132812 -6.9375 9.144531 -7.472656 9.15625 -7.953125 C 9.007812 -7.472656 8.835938 -6.9375 8.640625 -6.34375 C 8.441406 -5.75 8.25 -5.175781 8.0625 -4.625 L 6.46875 0 L 5.0625 0 L 3.453125 -4.65625 C 3.273438 -5.1875 3.085938 -5.742188 2.890625 -6.328125 C 2.703125 -6.921875 2.535156 -7.457031 2.390625 -7.9375 C 2.410156 -7.445312 2.421875 -6.910156 2.421875 -6.328125 C 2.421875 -5.742188 2.421875 -5.171875 2.421875 -4.609375 L 2.421875 0 L 1.296875 0 L 1.296875 -8.96875 L 3.140625 -8.96875 L 5.796875 -0.953125 L 8.4375 -8.96875 Z M 10.25 -8.96875 "/></g></g></g><g fill="#253a30" fill-opacity="1"><g transform="translate(138.01687, 289.341367)"><g/></g></g><g fill="#253a30" fill-opacity="1"><g transform="translate(141.617026, 289.341367)"><g><path d="M 7.265625 -0.90625 L 7.265625 0 L 1.296875 0 L 1.296875 -8.96875 L 7.140625 -8.96875 L 7.140625 -8.0625 L 2.421875 -8.0625 L 2.421875 -4.9375 L 6.75 -4.9375 L 6.75 -4.03125 L 2.421875 -4.03125 L 2.421875 -0.90625 Z M 7.265625 -0.90625 "/></g></g></g><g fill="#253a30" fill-opacity="1"><g transform="translate(150.038702, 289.341367)"><g><path d="M 6.78125 0 L 4.15625 -3.796875 L 1.609375 0 L 0.328125 0 L 3.515625 -4.53125 L 0.5625 -8.96875 L 1.828125 -8.96875 L 4.21875 -5.296875 L 6.6875 -8.96875 L 7.96875 -8.96875 L 4.84375 -4.5625 L 8.09375 0 Z M 6.78125 0 "/></g></g></g><g fill="#253a30" fill-opacity="1"><g transform="translate(158.954226, 289.341367)"><g><path d="M 5.25 -8.921875 C 5.96875 -8.828125 6.535156 -8.5625 6.953125 -8.125 C 7.367188 -7.6875 7.578125 -7.082031 7.578125 -6.3125 C 7.578125 -5.8125 7.472656 -5.375 7.265625 -5 C 7.054688 -4.632812 6.773438 -4.34375 6.421875 -4.125 C 6.078125 -3.914062 5.6875 -3.78125 5.25 -3.71875 C 5.050781 -3.6875 4.863281 -3.671875 4.6875 -3.671875 C 4.507812 -3.671875 4.304688 -3.671875 4.078125 -3.671875 L 2.421875 -3.671875 L 2.421875 0 L 1.296875 0 L 1.296875 -8.96875 L 4.078125 -8.96875 C 4.304688 -8.96875 4.507812 -8.960938 4.6875 -8.953125 C 4.863281 -8.953125 5.050781 -8.941406 5.25 -8.921875 Z M 5.1875 -4.671875 C 5.507812 -4.734375 5.789062 -4.890625 6.03125 -5.140625 C 6.269531 -5.398438 6.390625 -5.789062 6.390625 -6.3125 C 6.390625 -6.832031 6.269531 -7.21875 6.03125 -7.46875 C 5.789062 -7.726562 5.507812 -7.894531 5.1875 -7.96875 C 5.0625 -8 4.910156 -8.015625 4.734375 -8.015625 C 4.566406 -8.023438 4.382812 -8.03125 4.1875 -8.03125 L 2.421875 -8.03125 L 2.421875 -4.609375 L 4.1875 -4.609375 C 4.382812 -4.609375 4.566406 -4.609375 4.734375 -4.609375 C 4.910156 -4.617188 5.0625 -4.640625 5.1875 -4.671875 Z M 5.1875 -4.671875 "/></g></g></g><g fill="#253a30" fill-opacity="1"><g transform="translate(167.518853, 289.341367)"><g><path d="M 7.265625 -0.90625 L 7.265625 0 L 1.296875 0 L 1.296875 -8.96875 L 7.140625 -8.96875 L 7.140625 -8.0625 L 2.421875 -8.0625 L 2.421875 -4.9375 L 6.75 -4.9375 L 6.75 -4.03125 L 2.421875 -4.03125 L 2.421875 -0.90625 Z M 7.265625 -0.90625 "/></g></g></g><g fill="#253a30" fill-opacity="1"><g transform="translate(175.94053, 289.341367)"><g><path d="M 8.3125 0 L 6.609375 0 L 2.375 -7.875 C 2.394531 -7.34375 2.40625 -6.773438 2.40625 -6.171875 C 2.414062 -5.578125 2.421875 -5.015625 2.421875 -4.484375 L 2.421875 0 L 1.296875 0 L 1.296875 -8.96875 L 3.015625 -8.96875 L 7.234375 -1.09375 C 7.234375 -1.625 7.226562 -2.1875 7.21875 -2.78125 C 7.207031 -3.382812 7.203125 -3.953125 7.203125 -4.484375 L 7.203125 -8.96875 L 8.296875 -8.96875 Z M 8.3125 0 "/></g></g></g><g fill="#253a30" fill-opacity="1"><g transform="translate(186.064689, 289.341367)"><g><path d="M 4.078125 -9.15625 C 4.703125 -9.15625 5.226562 -9.039062 5.65625 -8.8125 C 6.082031 -8.582031 6.410156 -8.265625 6.640625 -7.859375 C 6.878906 -7.453125 7.023438 -6.992188 7.078125 -6.484375 L 5.890625 -6.484375 C 5.835938 -7.046875 5.648438 -7.484375 5.328125 -7.796875 C 5.003906 -8.109375 4.554688 -8.265625 3.984375 -8.265625 C 3.515625 -8.265625 3.113281 -8.148438 2.78125 -7.921875 C 2.445312 -7.703125 2.28125 -7.359375 2.28125 -6.890625 C 2.28125 -6.398438 2.429688 -6.03125 2.734375 -5.78125 C 3.035156 -5.539062 3.53125 -5.34375 4.21875 -5.1875 C 5.195312 -4.957031 5.929688 -4.625 6.421875 -4.1875 C 6.921875 -3.757812 7.171875 -3.164062 7.171875 -2.40625 C 7.171875 -1.875 7.035156 -1.414062 6.765625 -1.03125 C 6.492188 -0.644531 6.125 -0.34375 5.65625 -0.125 C 5.195312 0.0820312 4.675781 0.1875 4.09375 0.1875 C 3.101562 0.1875 2.304688 -0.0507812 1.703125 -0.53125 C 1.109375 -1.007812 0.765625 -1.679688 0.671875 -2.546875 L 1.875 -2.546875 C 2 -1.953125 2.257812 -1.492188 2.65625 -1.171875 C 3.050781 -0.859375 3.539062 -0.703125 4.125 -0.703125 C 4.632812 -0.703125 5.070312 -0.832031 5.4375 -1.09375 C 5.800781 -1.363281 5.984375 -1.734375 5.984375 -2.203125 C 5.984375 -2.742188 5.8125 -3.15625 5.46875 -3.4375 C 5.132812 -3.726562 4.570312 -3.960938 3.78125 -4.140625 C 3.25 -4.265625 2.78125 -4.425781 2.375 -4.625 C 1.976562 -4.820312 1.664062 -5.082031 1.4375 -5.40625 C 1.207031 -5.726562 1.09375 -6.132812 1.09375 -6.625 C 1.09375 -7.144531 1.222656 -7.59375 1.484375 -7.96875 C 1.753906 -8.351562 2.117188 -8.644531 2.578125 -8.84375 C 3.035156 -9.050781 3.535156 -9.15625 4.078125 -9.15625 Z M 4.078125 -9.15625 "/></g></g></g><g fill="#253a30" fill-opacity="1"><g transform="translate(194.460366, 289.341367)"><g><path d="M 7.265625 -0.90625 L 7.265625 0 L 1.296875 0 L 1.296875 -8.96875 L 7.140625 -8.96875 L 7.140625 -8.0625 L 2.421875 -8.0625 L 2.421875 -4.9375 L 6.75 -4.9375 L 6.75 -4.03125 L 2.421875 -4.03125 L 2.421875 -0.90625 Z M 7.265625 -0.90625 "/></g></g></g><g fill="#253a30" fill-opacity="1"><g transform="translate(202.882038, 289.341367)"><g/></g></g><g fill="#253a30" fill-opacity="1"><g transform="translate(206.482189, 289.341367)"><g><path d="M 7.953125 -8.0625 L 4.765625 -8.0625 L 4.765625 0 L 3.640625 0 L 3.640625 -8.0625 L 0.4375 -8.0625 L 0.4375 -8.96875 L 7.953125 -8.96875 Z M 7.953125 -8.0625 "/></g></g></g><g fill="#253a30" fill-opacity="1"><g transform="translate(215.228759, 289.341367)"><g><path d="M 7.203125 -2.359375 C 7.253906 -1.773438 7.320312 -1.296875 7.40625 -0.921875 C 7.488281 -0.546875 7.617188 -0.238281 7.796875 0 L 6.5625 0 C 6.445312 -0.28125 6.351562 -0.585938 6.28125 -0.921875 C 6.207031 -1.253906 6.140625 -1.695312 6.078125 -2.25 C 6.023438 -2.707031 5.898438 -3.078125 5.703125 -3.359375 C 5.503906 -3.648438 5.1875 -3.8125 4.75 -3.84375 C 4.644531 -3.851562 4.535156 -3.859375 4.421875 -3.859375 C 4.316406 -3.859375 4.210938 -3.859375 4.109375 -3.859375 L 2.421875 -3.859375 L 2.421875 0 L 1.296875 0 L 1.296875 -8.96875 L 4.234375 -8.96875 C 4.460938 -8.96875 4.664062 -8.960938 4.84375 -8.953125 C 5.019531 -8.953125 5.207031 -8.941406 5.40625 -8.921875 C 6.0625 -8.828125 6.597656 -8.59375 7.015625 -8.21875 C 7.429688 -7.84375 7.640625 -7.28125 7.640625 -6.53125 C 7.640625 -6.132812 7.5625 -5.789062 7.40625 -5.5 C 7.257812 -5.21875 7.066406 -4.984375 6.828125 -4.796875 C 6.585938 -4.617188 6.328125 -4.488281 6.046875 -4.40625 C 6.410156 -4.238281 6.6875 -3.96875 6.875 -3.59375 C 7.0625 -3.21875 7.171875 -2.804688 7.203125 -2.359375 Z M 2.421875 -4.765625 L 4.140625 -4.765625 C 4.335938 -4.765625 4.5 -4.765625 4.625 -4.765625 C 4.757812 -4.773438 4.882812 -4.785156 5 -4.796875 C 5.414062 -4.835938 5.757812 -4.992188 6.03125 -5.265625 C 6.3125 -5.535156 6.453125 -5.921875 6.453125 -6.421875 C 6.453125 -6.921875 6.335938 -7.296875 6.109375 -7.546875 C 5.878906 -7.796875 5.554688 -7.953125 5.140625 -8.015625 C 4.921875 -8.046875 4.617188 -8.0625 4.234375 -8.0625 L 2.421875 -8.0625 Z M 2.421875 -4.765625 "/></g></g></g><g fill="#253a30" fill-opacity="1"><g transform="translate(224.066298, 289.341367)"><g><path d="M 5.921875 -3.171875 L 2.625 -3.171875 L 1.578125 0 L 0.375 0 L 3.59375 -8.96875 L 5.109375 -8.96875 L 8.203125 0 L 7 0 Z M 2.9375 -4.078125 L 5.625 -4.078125 L 4.328125 -8.09375 Z M 2.9375 -4.078125 "/></g></g></g><g fill="#253a30" fill-opacity="1"><g transform="translate(233.163755, 289.341367)"><g><path d="M 4.84375 -9.15625 C 5.613281 -9.15625 6.253906 -9.019531 6.765625 -8.75 C 7.285156 -8.488281 7.6875 -8.128906 7.96875 -7.671875 C 8.257812 -7.222656 8.4375 -6.703125 8.5 -6.109375 L 8.515625 -5.984375 L 7.390625 -5.984375 L 7.375 -6.109375 C 7.238281 -6.753906 6.960938 -7.273438 6.546875 -7.671875 C 6.140625 -8.066406 5.566406 -8.265625 4.828125 -8.265625 C 4.210938 -8.265625 3.679688 -8.101562 3.234375 -7.78125 C 2.796875 -7.457031 2.457031 -7.007812 2.21875 -6.4375 C 1.976562 -5.875 1.859375 -5.226562 1.859375 -4.5 C 1.859375 -3.757812 1.972656 -3.101562 2.203125 -2.53125 C 2.441406 -1.957031 2.773438 -1.507812 3.203125 -1.1875 C 3.640625 -0.863281 4.15625 -0.703125 4.75 -0.703125 C 5.488281 -0.703125 6.0625 -0.898438 6.46875 -1.296875 C 6.882812 -1.691406 7.160156 -2.210938 7.296875 -2.859375 L 7.3125 -2.984375 L 8.4375 -2.984375 L 8.421875 -2.859375 C 8.367188 -2.316406 8.195312 -1.8125 7.90625 -1.34375 C 7.613281 -0.882812 7.195312 -0.515625 6.65625 -0.234375 C 6.125 0.046875 5.46875 0.1875 4.6875 0.1875 C 3.8125 0.1875 3.070312 -0.015625 2.46875 -0.421875 C 1.863281 -0.835938 1.398438 -1.394531 1.078125 -2.09375 C 0.765625 -2.789062 0.609375 -3.578125 0.609375 -4.453125 C 0.609375 -5.359375 0.78125 -6.164062 1.125 -6.875 C 1.476562 -7.582031 1.972656 -8.140625 2.609375 -8.546875 C 3.253906 -8.953125 4 -9.15625 4.84375 -9.15625 Z M 4.84375 -9.15625 "/></g></g></g><g fill="#253a30" fill-opacity="1"><g transform="translate(243.040979, 289.341367)"><g><path d="M 4.09375 -4.59375 L 7.9375 0 L 6.359375 0 L 3.28125 -3.828125 L 2.421875 -2.90625 L 2.421875 0 L 1.296875 0 L 1.296875 -8.96875 L 2.421875 -8.96875 L 2.421875 -4.203125 L 6.84375 -8.96875 L 8.15625 -8.96875 Z M 4.09375 -4.59375 "/></g></g></g><g fill="#253a30" fill-opacity="1"><g transform="translate(251.748558, 289.341367)"><g><path d="M 2.421875 0 L 1.296875 0 L 1.296875 -8.96875 L 2.421875 -8.96875 Z M 2.421875 0 "/></g></g></g><g fill="#253a30" fill-opacity="1"><g transform="translate(255.972515, 289.341367)"><g><path d="M 8.3125 0 L 6.609375 0 L 2.375 -7.875 C 2.394531 -7.34375 2.40625 -6.773438 2.40625 -6.171875 C 2.414062 -5.578125 2.421875 -5.015625 2.421875 -4.484375 L 2.421875 0 L 1.296875 0 L 1.296875 -8.96875 L 3.015625 -8.96875 L 7.234375 -1.09375 C 7.234375 -1.625 7.226562 -2.1875 7.21875 -2.78125 C 7.207031 -3.382812 7.203125 -3.953125 7.203125 -4.484375 L 7.203125 -8.96875 L 8.296875 -8.96875 Z M 8.3125 0 "/></g></g></g><g fill="#253a30" fill-opacity="1"><g transform="translate(266.096668, 289.341367)"><g><path d="M 5.1875 -4.328125 L 8.390625 -4.328125 L 8.390625 0 L 7.40625 0 L 7.40625 -1.5625 L 7 -0.734375 C 6.75 -0.441406 6.425781 -0.210938 6.03125 -0.046875 C 5.644531 0.109375 5.195312 0.1875 4.6875 0.1875 C 3.8125 0.1875 3.070312 -0.015625 2.46875 -0.421875 C 1.863281 -0.835938 1.398438 -1.394531 1.078125 -2.09375 C 0.765625 -2.789062 0.609375 -3.578125 0.609375 -4.453125 C 0.609375 -5.359375 0.78125 -6.164062 1.125 -6.875 C 1.476562 -7.582031 1.972656 -8.140625 2.609375 -8.546875 C 3.253906 -8.953125 4 -9.15625 4.84375 -9.15625 C 5.613281 -9.15625 6.253906 -9.019531 6.765625 -8.75 C 7.285156 -8.488281 7.6875 -8.128906 7.96875 -7.671875 C 8.257812 -7.222656 8.4375 -6.703125 8.5 -6.109375 L 8.515625 -5.984375 L 7.390625 -5.984375 L 7.375 -6.109375 C 7.238281 -6.753906 6.960938 -7.273438 6.546875 -7.671875 C 6.140625 -8.066406 5.566406 -8.265625 4.828125 -8.265625 C 4.210938 -8.265625 3.679688 -8.101562 3.234375 -7.78125 C 2.796875 -7.457031 2.457031 -7.007812 2.21875 -6.4375 C 1.976562 -5.875 1.859375 -5.226562 1.859375 -4.5 C 1.859375 -3.757812 1.972656 -3.101562 2.203125 -2.53125 C 2.441406 -1.957031 2.773438 -1.507812 3.203125 -1.1875 C 3.640625 -0.863281 4.15625 -0.703125 4.75 -0.703125 C 5.226562 -0.703125 5.65625 -0.816406 6.03125 -1.046875 C 6.414062 -1.273438 6.71875 -1.59375 6.9375 -2 C 7.164062 -2.414062 7.28125 -2.890625 7.28125 -3.421875 L 5.1875 -3.421875 Z M 5.1875 -4.328125 "/></g></g></g></svg>